# xmcd CD database file
#
# Track frame offsets:
#	187
#	47812
#	104607
#	150297
#	205462
#	257052
#
# Disc length: 3851 seconds
#
# Revision: 1
# Processed by: cddbd v1.5.2PL0 Copyright (c) Steve Scherf et al.
# Submitted via: CDex 1.70beta2
#
DISCID=4d0f0906
DTITLE=Erick Heidsieck - Hans Graf and Mozarteum Orchestra Salzburg - Mozart Piano Concertos No9 ジュノーム and No18 パラディース
DYEAR=1994
DGENRE=Classical
TTITLE0=Piano Concerto No9 in E flat major K271 Jeunehomme 第１楽章　アレグロ
TTITLE1=第２楽章　アンダンティーノ
TTITLE2=第３楽章　ロンド・プレスト
TTITLE3=Piano Concerto No18 in B flat major K456 Paradies 第１楽章　アレグロ・ヴィヴァーチェ
TTITLE4=第２楽章　アンダンテ・ウン・ポーコ・ソステヌート
TTITLE5=第３楽章　アレグロ・ヴィヴァーチェ
EXTD=YEAR: 1994
EXTT0=
EXTT1=
EXTT2=
EXTT3=
EXTT4=
EXTT5=
PLAYORDER=
